<svg xmlns="http://www.w3.org/2000/svg" xmlns:xlink="http://www.w3.org/1999/xlink" viewBox="0 0 129.25 116.4"><defs><style>.cls-1{isolation:isolate;}.cls-2{font-size:19px;fill:#fff;font-family:Poppins-Light, Poppins;font-weight:300;letter-spacing:0.2em;}.cls-3,.cls-4{fill:url(#linear-gradient);}.cls-4{mix-blend-mode:hard-light;}.cls-11,.cls-12,.cls-5,.cls-7,.cls-8{mix-blend-mode:screen;}.cls-5{fill:url(#linear-gradient-3);}.cls-10,.cls-13,.cls-14,.cls-15,.cls-6,.cls-9{mix-blend-mode:multiply;}.cls-6{fill:url(#linear-gradient-4);}.cls-7{fill:url(#linear-gradient-5);}.cls-8{fill:url(#linear-gradient-6);}.cls-9{fill:url(#linear-gradient-7);}.cls-10{fill:url(#linear-gradient-8);}.cls-11{fill:url(#linear-gradient-9);}.cls-12{fill:url(#linear-gradient-10);}.cls-13{fill:url(#linear-gradient-11);}.cls-14{fill:url(#linear-gradient-12);}.cls-15{fill:url(#linear-gradient-13);}</style><linearGradient id="linear-gradient" x1="29.34" y1="-8.71" x2="126.13" y2="103.08" gradientUnits="userSpaceOnUse"><stop offset="0" stop-color="#29abe2"/><stop offset="1" stop-color="#ed1e79"/></linearGradient><linearGradient id="linear-gradient-3" x1="72.29" y1="-36.55" x2="136.14" y2="79.47" gradientUnits="userSpaceOnUse"><stop offset="0" stop-color="#ffd7ff"/><stop offset="1"/></linearGradient><linearGradient id="linear-gradient-4" x1="45.6" y1="44.38" x2="96.85" y2="43.8" gradientUnits="userSpaceOnUse"><stop offset="0" stop-color="#0071bc"/><stop offset="1" stop-color="#fff"/></linearGradient><linearGradient id="linear-gradient-5" x1="2.27" y1="113.99" x2="74.72" y2="26.87" xlink:href="#linear-gradient-3"/><linearGradient id="linear-gradient-6" x1="135.06" y1="87.25" x2="52.03" y2="37.15" xlink:href="#linear-gradient-3"/><linearGradient id="linear-gradient-7" x1="66.78" y1="121.26" x2="37.3" y2="8.57" xlink:href="#linear-gradient-4"/><linearGradient id="linear-gradient-8" x1="68.44" y1="114.2" x2="42.92" y2="31.83" xlink:href="#linear-gradient-4"/><linearGradient id="linear-gradient-9" x1="-43.38" y1="-45.25" x2="54.29" y2="57.54" gradientUnits="userSpaceOnUse"><stop offset="0" stop-color="#7ff9ff"/><stop offset="1"/></linearGradient><linearGradient id="linear-gradient-10" x1="131.7" y1="-5.74" x2="22.73" y2="42.99" xlink:href="#linear-gradient-9"/><linearGradient id="linear-gradient-11" x1="68.72" y1="58.85" x2="33.36" y2="44.21" xlink:href="#linear-gradient-4"/><linearGradient id="linear-gradient-12" x1="32.39" y1="77.68" x2="91.06" y2="55.45" xlink:href="#linear-gradient-4"/><linearGradient id="linear-gradient-13" x1="37.31" y1="52.47" x2="98.05" y2="61.02" xlink:href="#linear-gradient-4"/></defs><g class="cls-1"><g id="Layer_1" data-name="Layer 1"><text class="cls-2" transform="translate(21.71 105.68)">STUDIO</text><polygon class="cls-3" points="111.82 0 94.39 0 89.48 21.09 84.57 0 79.54 0 67.14 0 62.11 0 49.71 0 44.69 0 39.77 21.09 34.85 0 17.43 0 0 0 20.43 87.68 24.25 87.68 59.11 87.68 64.62 64 70.14 87.68 73.96 87.68 91.39 87.68 105 87.68 108.82 87.68 129.25 0 111.82 0"/><polygon class="cls-4" points="111.82 0 94.39 0 89.48 21.09 84.57 0 79.54 0 67.14 0 62.11 0 49.71 0 44.69 0 39.77 21.09 34.85 0 17.43 0 0 0 20.43 87.68 24.25 87.68 59.11 87.68 64.62 64 70.14 87.68 73.96 87.68 91.39 87.68 105 87.68 108.82 87.68 129.25 0 111.82 0"/><path class="cls-5" d="M142.21,12.26,121.78,99.94H104.35l6.8-29.2,13.63-58.48Z" transform="translate(-12.96 -12.26)"/><polygon class="cls-6" points="94.39 0 89.48 21.09 80.77 58.48 73.34 26.61 64.62 64 70.14 87.68 73.96 87.68 87.57 87.68 91.39 87.68 98.19 58.48 111.82 0 94.39 0"/><polygon class="cls-7" points="84.57 0 79.54 0 67.14 0 62.11 0 55.91 26.6 48.48 58.48 41.68 87.68 55.28 87.68 59.11 87.68 64.62 64 73.34 26.61 80.77 58.48 89.48 21.09 84.57 0"/><polygon class="cls-8" points="84.57 0 79.54 0 67.14 0 62.11 0 55.91 26.6 48.48 58.48 41.68 87.68 55.28 87.68 59.11 87.68 64.62 64 73.34 26.61 80.77 58.48 89.48 21.09 84.57 0"/><path class="cls-9" d="M52.73,33.34,44,70.74,30.39,12.26H47.82Z" transform="translate(-12.96 -12.26)"/><path class="cls-10" d="M52.73,33.34,44,70.74,30.39,12.26H47.82Z" transform="translate(-12.96 -12.26)"/><polygon class="cls-11" points="49.71 0 44.69 0 39.77 21.09 31.06 58.48 17.43 0 0 0 20.43 87.68 24.25 87.68 37.86 87.68 41.68 87.68 48.48 58.48 55.91 26.6 62.11 0 49.71 0"/><polygon class="cls-12" points="49.71 0 44.69 0 39.77 21.09 31.06 58.48 17.43 0 0 0 20.43 87.68 24.25 87.68 37.86 87.68 41.68 87.68 48.48 58.48 55.91 26.6 62.11 0 49.71 0"/><path class="cls-13" d="M51.9,29.78l.83,3.56L44,70.74,38.76,48.16C45,42.44,50.46,33.49,51.9,29.78Z" transform="translate(-12.96 -12.26)"/><path class="cls-14" d="M91.23,60c-5.5,7.21-9.87,13.68-13.07,18.71l-.57-2.46,8.71-37.4Z" transform="translate(-12.96 -12.26)"/><path class="cls-15" d="M91.23,60c-5.5,7.21-9.87,13.68-13.07,18.71l-.57-2.46,8.71-37.4Z" transform="translate(-12.96 -12.26)"/></g></g></svg>